<?xml version="1.0" encoding="utf-8"?>
<!-- Generator: Adobe Illustrator 21.0.0, SVG Export Plug-In . SVG Version: 6.00 Build 0)  -->
<svg version="1.1" id="Layer_1" xmlns="http://www.w3.org/2000/svg" xmlns:xlink="http://www.w3.org/1999/xlink" x="0px" y="0px"
	 viewBox="0 0 275 300" style="enable-background:new 0 0 275 300;" xml:space="preserve">
<style type="text/css">
	.st0{fill:#7F3C1F;}
	.st1{fill:#FFD400;}
	.st2{fill:#CC6F1B;}
	.st3{opacity:0.45;fill:#FFFFFF;}
	.st4{opacity:0.1;}
	.st5{opacity:0.2;}
</style>
<g>
	<path class="st0" d="M273.0071,106.9752c-1.4962-3.2148-4.1109-6.0061-6.9803-7.753c-0.5683-0.3609-1.1455-0.6629-1.7227-0.9586
		c-1.3976-0.9867-2.808-1.8429-4.2248-2.5468c-3.613-1.784-7.2452-3.0472-10.8826-4.1555
		c-7.276-2.1808-14.5762-3.6845-21.8816-4.9976c-7.3054-1.2977-14.6185-2.3561-21.9226-3.3185l-18.2737-2.3203
		c-2.7363-9.5767-6.1804-18.8295-10.0379-27.8853c-4.308-10.1411-9.0626-20.0748-14.5084-29.6937
		c-2.7594-4.7915-5.625-9.5408-9.0486-14.0457c-1.7252-2.2511-3.5605-4.4434-5.9091-6.4591
		c-1.203-0.9842-2.4983-2.0003-4.5217-2.5929c-1.7751-0.4633-3.2163-0.2086-4.4769,0.1932
		c-0.3904,0.0627-0.7679,0.1459-1.1135,0.2547c-2.4151,0.7768-4.1646,2.1155-5.8272,3.4567
		c-1.6472,1.3617-3.1113,2.8386-4.5166,4.35c-0.0806,0.087-0.1497,0.1792-0.2291,0.2662c-1.0405,1.0379-2.049,2.0976-3.0281,3.1752
		c-3.7602,4.1478-7.1774,8.5132-10.4397,12.9745c-6.4927,8.9419-12.389,18.2511-17.8206,27.8405
		c-4.0072,7.0555-7.6817,14.3017-10.9632,21.7743c-0.7257,1.3105-1.4539,2.6172-2.1796,3.9302
		c-7.1966,0.9227-14.3279,2.0861-21.3953,3.5348c-7.6138,1.5102-15.1637,3.3019-22.6342,5.402
		c-7.482,2.0643-14.909,4.359-22.1709,7.3306c-2.2666,0.9534-4.514,1.9606-6.7269,3.1419
		c-1.0572,0.4364-2.1002,0.9637-3.1164,1.6202c-0.7628,0.4914-1.4769,1.0929-2.1489,1.7469l-0.5875,0.5068
		c-0.1997,0.1753-0.6361,0.6361-0.846,1.0098c-0.0384,0.0678-0.0461,0.1305-0.0806,0.1984
		c-0.375,0.5119-0.7193,1.0443-1.0136,1.6049c-1.1058,2.0694-1.5998,4.3282-1.7406,6.4745
		c-0.2419,4.3231,0.7078,8.2854,1.8699,12.0364c1.2043,3.7459,2.6813,7.3204,4.2977,10.7989
		c3.1254,6.9838,7.2171,13.6758,11.6351,19.8623c4.4142,6.2415,9.2008,12.1746,14.2435,17.8838
		c2.5251,2.8526,5.1181,5.6452,7.8135,8.3647c1.3502,1.3591,2.7248,2.6978,4.1621,4.0109c0.4531,0.4134,0.9369,0.8178,1.4104,1.226
		c-3.5605,13.6093-6.7461,27.3261-8.9782,41.3129c-1.1711,7.6992-2.1566,15.4535-1.994,23.511
		c0.0205,0.4287,0.041,0.8587,0.0627,1.2887c-0.3187,6.0918-0.3776,12.2143-0.0026,18.3637
		c0.7257,9.679,2.3101,19.6909,7.5268,28.7671l0.0038,0.0064l0.7282,1.5166l1.9236,0.0154
		c1.9159,0.0166,2.9718-0.3468,4.1301-0.6476c1.1212-0.3212,2.1553-0.6885,3.1612-1.0904c2.017-0.7935,3.9253-1.6637,5.8195-2.557
		c3.7807-1.784,7.4334-3.7101,11.0106-5.7514c7.1544-4.0723,14.2127-8.2495,21.0663-12.7416
		c6.8933-4.4332,13.6253-9.098,20.2972-13.8844c5.4266-3.9725,10.7815-7.9872,16.0506-12.3692
		c5.6467,4.6418,11.4444,8.7192,17.3497,12.7109c7.1518,4.7851,14.4521,9.2977,21.9085,13.5798
		c7.4615,4.2796,15.0933,8.2777,23.054,11.8534c3.9919,1.7776,8.0605,3.4452,12.3736,4.8491
		c2.1642,0.6949,4.3937,1.3195,6.7858,1.7904c2.4407,0.4147,4.921,0.8588,8.2947,0.3404l3.1241-0.4786l1.1019-3.051
		c3.0857-8.5503,4.5934-17.3399,5.3472-26.0552c0.6924-8.7256,0.6003-17.4141-0.032-26.0233
		c-0.6463-8.6104-1.7969-17.1479-3.4556-25.6111c-0.8332-4.2323-1.7943-8.444-2.9411-12.6533
		c-0.7756-2.7375-1.555-5.4058-2.5674-8.1702c9.9713-5.9254,19.4627-12.9182,27.7126-21.32
		c9.4415-9.5088,16.9824-20.7121,23.2063-32.1688c2.5891-4.7314,4.7943-9.6752,6.2303-15.1629
		c0.7052-2.7439,1.2031-5.6388,1.2299-8.741C275.0305,113.5712,274.5391,110.1862,273.0071,106.9752z"/>
	<path class="st1" d="M266.289,106.4305c-4.6302-14.1993-63.5105-19.2827-83.2293-22.0573
		C170.5718,58.7626,155.3166,8.748,141.3843,2.6808c-12.0886-5.2643-45.1915,55.307-56.9667,78.5629
		C53.238,84.0547,13.8372,95.1988,5.0688,103.401c-7.8355,7.3299,51.1066,54.3034,51.0697,54.4003
		c-3.6482,9.6328-29.972,106.6569-11.33,106.6569c8.7661,0,63.2861-36.595,81.4545-52.818
		c18.1691,16.223,72.2326,49.1917,87.621,46.5159c11.2422-1.9548-6.1373-69.7984-10.922-93.5508
		C231.2944,148.9527,269.3716,115.8837,266.289,106.4305z"/>
	<path class="st2" d="M46.9816,179.515c1.8891-6.907,3.837-13.7667,6.1036-20.6404l0.0922-0.2662l-1.5525-1.2862l-4.4411-3.7152
		l-8.7964-7.5367c-5.8208-5.0795-11.5635-10.2575-17.141-15.6441c-5.5392-5.4417-11.0618-10.8757-15.746-17.4397
		c-0.1011-0.151-0.1984-0.3046-0.2995-0.4556c-0.0294,2.9141,0.5951,6.0176,1.5013,9.0532
		c1.0431,3.4465,2.4765,6.8379,4.0187,10.1948c3.0358,6.7778,6.819,13.0142,11.1603,19.0765
		c4.331,6.0265,9.0613,11.8022,14.0336,17.345c2.4893,2.7695,5.0452,5.4801,7.6727,8.0908
		C44.7022,177.3982,45.8387,178.4668,46.9816,179.515z"/>
	<path class="st2" d="M213.8153,262.1305c-0.7052,0.0819-1.3771,0.1126-2.0183,0.1049c-5.0746-0.151-9.1458-1.514-13.2337-2.8821
		c-4.0431-1.4231-7.9133-3.0779-11.717-4.835c-7.5934-3.5284-14.9026-7.474-22.0774-11.6307
		c-7.1697-4.1657-14.1897-8.5592-21.0689-13.1997c-5.9385-4.0441-11.7721-8.1996-17.4047-12.8939l-0.0653,20.1157l3.5785,3.1227
		c5.9846,5.2177,12.8983,10.0374,19.807,14.6254c6.9547,4.5842,14.0976,8.9329,21.3543,13.0334
		c7.267,4.071,14.6274,7.9897,22.1209,11.3453c3.7397,1.6714,7.5179,3.2136,11.2576,4.4319
		c1.8647,0.6028,3.7231,1.1134,5.4842,1.4628c0.4147,0.0819,0.8357,0.151,1.2466,0.2073c1.8814-6.2466,3.0089-12.8516,3.59-19.55
		c0.0986-1.2107,0.151-2.4303,0.2176-3.6461C214.4258,262.0524,214.0175,262.119,213.8153,262.1305z"/>
	<path class="st2" d="M210.2688,179.785c-0.6054-2.7605-1.2043-5.5184-1.7995-8.27
		C209.067,174.2665,209.6609,177.0232,210.2688,179.785z"/>
	<path class="st2" d="M53.7443,157.0099c0.0192-0.0512,0.0333-0.0896,0.0013-0.0051
		C53.7456,157.0047,53.7456,157.0073,53.7443,157.0099z"/>
	<path class="st2" d="M54.3062,159.5464c0.2189,0.2675,0.3545,0.3315,0.1203,0.1024l-0.0474-0.041L54.3062,159.5464z"/>
	<path class="st2" d="M117.047,244.8277c1.9364-1.5793,3.8434-3.1713,5.6697-4.7954l3.0499-2.7119
		c-0.9241,0.8101-2.1591,1.912-3.0268,2.6837C120.9045,241.6346,118.9898,243.2382,117.047,244.8277z"/>
	<path class="st2" d="M40.4236,266.3013c-0.0128-0.0077-0.0243-0.0166-0.0384-0.0256c0.0538,0.9931,0.0729,1.9913,0.1485,2.9806
		c0.6962,8.3455,2.2525,16.778,5.8822,23.8489c0.0102-0.0038,0.0205-0.0077,0.0307-0.0128
		c-3.6245-7.0683-5.1796-15.4957-5.8758-23.8374C40.4979,268.2747,40.4761,267.2867,40.4236,266.3013z"/>
	<path class="st2" d="M116.2151,224.6339c0.9496-0.709,1.9019-1.4167,2.8464-2.1385
		C118.1157,223.2159,117.166,223.9262,116.2151,224.6339z"/>
	<path class="st2" d="M126.2594,216.7632c-0.2125,0.1766-0.4236,0.3558-0.6361,0.5311c0.2163-0.1779,0.4377-0.3379,0.6527-0.517
		C126.2709,216.7722,126.2658,216.7683,126.2594,216.7632z"/>
	<path class="st2" d="M46.2149,267.4135c0.6758-0.119,1.2415-0.2751,1.7867-0.4402c1.0828-0.334,2.0503-0.7154,2.9974-1.1147
		c7.4308-3.2635,13.9862-7.2794,20.6798-11.2545c6.6373-4.0134,13.1543-8.1855,19.6022-12.4626
		c6.4479-4.2796,12.8215-8.6667,19.1133-13.1998c1.0354-0.7512,2.0554-1.5255,3.0857-2.2831
		c-1.0392,0.7628-2.0785,1.5255-3.1228,2.2831c-6.2905,4.533-12.6641,8.9189-19.1107,13.1998
		c-6.4492,4.2771-12.9662,8.4492-19.6035,12.4626c-6.6923,3.9763-13.249,7.991-20.6798,11.2532
		c-0.9471,0.4006-1.9159,0.782-2.9961,1.116c-0.5465,0.1651-1.1135,0.3212-1.7892,0.4402
		c-0.3379,0.0563-0.7014,0.1075-1.1519,0.1203c0.0128-0.0013,0.0218,0.0013,0.0346,0.0013
		C45.511,267.5222,45.8745,267.471,46.2149,267.4135z"/>
	<path class="st2" d="M263.8741,121.0759c-0.032,0.1702-0.0755,0.3404-0.1101,0.5106
		C263.8011,121.4164,263.8408,121.2461,263.8741,121.0759z"/>
	<path class="st2" d="M258.0648,127.4928c1.2197-1.2747,2.4036-2.6057,3.5708-3.9648c-1.1672,1.3361-2.3575,2.6338-3.5708,3.9008
		c-5.241,5.4327-10.8032,10.397-16.528,15.1514c-5.7107,4.6917-11.5635,9.1927-17.6133,13.4365
		c6.0473-4.2259,11.9128-8.6885,17.6133-13.3712C247.2629,137.8911,252.8251,132.9268,258.0648,127.4928z"/>
	<path class="st2" d="M263.9368,120.7048c-0.4723,0.5913-0.9369,1.1979-1.4206,1.7687c0.4684-0.5605,0.9458-1.107,1.4053-1.6829
		C263.9265,120.7611,263.9317,120.7329,263.9368,120.7048z"/>
	<path class="st2" d="M223.4052,176.7186c-0.695,0.5081-1.4091,0.9957-2.1156,1.4922
		C221.9948,177.7117,222.7102,177.2292,223.4052,176.7186z"/>
	<path class="st2" d="M207.3981,166.5366c0.0038,0.0192,0.009,0.0384,0.0128,0.0576c1.4283-0.8267,2.8067-1.7188,4.212-2.5749
		C210.2253,164.8729,208.8187,165.7137,207.3981,166.5366z"/>
	<path class="st2" d="M215.3165,161.7617c2.6058-1.6586,5.1642-3.3786,7.6983-5.1307
		C220.4846,158.3882,217.9198,160.0993,215.3165,161.7617z"/>
	<path class="st2" d="M213.2854,183.4657c1.0866-0.6642,2.1668-1.3335,3.2355-2.0234
		C215.4522,182.1296,214.372,182.8027,213.2854,183.4657z"/>
	<path class="st0" d="M273.0071,106.9752c-1.4962-3.2148-4.1109-6.0061-6.9803-7.753c-0.5683-0.3609-1.1455-0.6629-1.7227-0.9586
		c-1.3963-0.9867-2.808-1.8429-4.2248-2.5468c-3.613-1.784-7.2452-3.0472-10.8826-4.1555
		c-7.276-2.1808-14.5762-3.6845-21.8816-4.9976c-7.3054-1.2977-14.6185-2.3561-21.9226-3.3185l-18.2737-2.3203
		c-2.7363-9.5767-6.1804-18.8295-10.0379-27.8853c-4.308-10.1411-9.0626-20.0748-14.5084-29.6937
		c-2.7594-4.7915-5.625-9.5408-9.0486-14.0457c-1.7252-2.2511-3.5605-4.4434-5.9091-6.4591
		c-1.203-0.9842-2.4983-2.0003-4.5217-2.5929c-1.7751-0.4633-3.215-0.2086-4.4769,0.1932
		c-0.3904,0.0627-0.7679,0.1459-1.1135,0.2547c-2.4151,0.7768-4.1646,2.1155-5.8272,3.4567
		c-1.6472,1.3617-3.1113,2.8386-4.5166,4.35c-0.0793,0.087-0.1497,0.1792-0.2291,0.2662c-1.0405,1.0379-2.049,2.0976-3.0281,3.1752
		c-3.7602,4.1478-7.1774,8.5132-10.4397,12.9745c-6.4927,8.9419-12.389,18.2511-17.8206,27.8405
		c-4.0072,7.0555-7.6804,14.3017-10.9632,21.7743c-0.7257,1.3105-1.4539,2.6172-2.1783,3.9302
		c-7.1979,0.9227-14.3292,2.0861-21.3965,3.5348c-7.6138,1.5102-15.1637,3.3019-22.6342,5.402
		c-7.482,2.0643-14.909,4.359-22.1709,7.3306c-2.2653,0.9534-4.514,1.9606-6.7269,3.1419
		c-1.0572,0.4364-2.1002,0.9637-3.1164,1.6202c-0.7628,0.4914-1.4769,1.0929-2.1476,1.7469l-0.5887,0.5068
		c-0.1997,0.1753-0.6361,0.6361-0.846,1.0098c-0.0384,0.0678-0.0461,0.1305-0.0806,0.1984
		c-0.375,0.5119-0.7193,1.0443-1.0136,1.6049c-1.1058,2.0694-1.5998,4.3282-1.7406,6.4745
		c-0.2419,4.3231,0.7078,8.2854,1.8699,12.0364c1.2043,3.7459,2.6813,7.3204,4.2977,10.7989
		c3.1254,6.9838,7.2171,13.6758,11.6351,19.8623c4.4142,6.2415,9.2008,12.1746,14.2435,17.8838
		c2.5251,2.8526,5.1181,5.6452,7.8135,8.3647c1.3502,1.3591,2.7248,2.6978,4.1621,4.0109c0.4531,0.4134,0.9369,0.8178,1.4117,1.226
		c-3.5618,13.6093-6.7474,27.3261-8.9794,41.3129c-1.1711,7.6992-2.1566,15.4535-1.994,23.511
		c0.0205,0.4287,0.041,0.8587,0.064,1.2887c-0.32,6.0918-0.3788,12.2143-0.0038,18.3637c0.7257,9.679,2.3101,19.6909,7.5268,28.7671
		l0.0038,0.0064l0.7282,1.5166l1.9236,0.0154c1.9159,0.0166,2.9718-0.3468,4.1301-0.6476c1.1212-0.3212,2.1553-0.6885,3.1612-1.0904
		c2.017-0.7935,3.9253-1.6637,5.8195-2.557c3.7807-1.784,7.4334-3.7101,11.0106-5.7514
		c7.1544-4.0723,14.2127-8.2495,21.0663-12.7416c6.8933-4.4332,13.6253-9.098,20.2972-13.8844
		c5.4266-3.9725,10.7815-7.9872,16.0506-12.3692c5.6467,4.6418,11.4457,8.7192,17.3497,12.7109
		c7.1518,4.7851,14.4521,9.2977,21.9085,13.5798c7.4615,4.2796,15.0933,8.2777,23.054,11.8534
		c3.9919,1.7776,8.0605,3.4452,12.3736,4.8491c2.1642,0.6949,4.3937,1.3195,6.7858,1.7904c2.4407,0.4147,4.921,0.8588,8.2947,0.3404
		l3.1241-0.4786l1.1019-3.051c3.0857-8.5503,4.5934-17.3399,5.3472-26.0552c0.6924-8.7256,0.6003-17.4141-0.032-26.0233
		c-0.6463-8.6104-1.7969-17.1479-3.4556-25.6111c-0.8332-4.2323-1.7943-8.444-2.9411-12.6533
		c-0.7756-2.7375-1.5537-5.4058-2.5674-8.1702c9.9713-5.9254,19.4627-12.9182,27.7126-21.32
		c9.4415-9.5088,16.9824-20.7121,23.2063-32.1688c2.5891-4.7314,4.7943-9.6752,6.2303-15.1629
		c0.7052-2.7439,1.2031-5.6388,1.2299-8.741C275.0305,113.5712,274.5391,110.1862,273.0071,106.9752z M211.0789,285.1385
		c-0.4108-0.0563-0.8319-0.1254-1.2466-0.2073c-1.7611-0.3494-3.6194-0.86-5.4842-1.4628
		c-3.7397-1.2184-7.5179-2.7605-11.2576-4.4319c-7.4935-3.3556-14.8539-7.2743-22.1209-11.3453
		c-7.2567-4.1004-14.3996-8.4492-21.3543-13.0334c-6.9086-4.588-13.8224-9.4077-19.807-14.6254l-3.5785-3.1227v0.0051
		c-0.1357,0.1177-0.3046,0.2675-0.4633,0.4057l-3.0499,2.7119c-1.8263,1.6241-3.7333,3.2161-5.6697,4.7954
		c-4.1966,3.4337-8.584,6.7842-12.9802,10.0604c-6.4377,4.8274-13.0238,9.4922-19.6099,14.1468
		c-6.6322,4.5868-13.2183,9.2554-19.9759,13.5978c-3.3839,2.1539-6.7576,4.3218-10.1569,6.3516
		c-1.6996,1.0021-3.4146,1.9798-5.1143,2.8334c-0.8498,0.4236-1.6945,0.8383-2.4957,1.18
		c-0.0845,0.0384-0.1741,0.0717-0.2611,0.1075c-0.0026-0.0038-0.0038-0.009-0.0064-0.0128
		c-0.0102,0.0051-0.0205,0.0089-0.0307,0.0128c-3.6297-7.0708-5.186-15.5034-5.8822-23.8489
		c-0.0755-0.9893-0.0947-1.9875-0.1485-2.9806c0.0141,0.0089,0.0256,0.0179,0.0384,0.0256c1.0623,0.645,2.2948,1.0622,3.4748,1.1761
		c0.3788,0.0256,0.7014,0.0742,1.1263,0.0563h0.0013c0.4505-0.0128,0.814-0.064,1.1519-0.1203
		c0.6758-0.119,1.2427-0.2751,1.7892-0.4402c1.0802-0.334,2.049-0.7154,2.9961-1.116c7.4308-3.2622,13.9875-7.2769,20.6798-11.2532
		c6.6373-4.0134,13.1543-8.1855,19.6035-12.4626c6.4466-4.2809,12.8203-8.6667,19.1107-13.1998
		c1.0444-0.7576,2.0836-1.5204,3.1228-2.2831c0.9138-0.6706,1.8251-1.3463,2.735-2.0246c0.9509-0.7077,1.9006-1.418,2.8464-2.1385
		c2.2065-1.6817,4.3924-3.4158,6.5618-5.2011c0.2125-0.1753,0.4236-0.3545,0.6361-0.5311c0.0064,0.0051,0.0115,0.009,0.0166,0.0141
		c0.0064,0.0051,0.0128,0.0102,0.0192,0.0166c5.6326,4.6943,11.4662,8.8497,17.4047,12.8939
		c6.8792,4.6405,13.8992,9.034,21.0689,13.1997c7.1748,4.1568,14.4841,8.1024,22.0774,11.6307
		c3.8037,1.7572,7.674,3.4119,11.717,4.835c4.0878,1.3681,8.159,2.7311,13.2337,2.8821c0.6412,0.0077,1.3131-0.023,2.0183-0.1049
		c0.2022-0.0115,0.6105-0.0781,1.0712-0.1881c-0.0665,1.2158-0.119,2.4354-0.2176,3.6461
		C214.0879,272.2869,212.9603,278.8919,211.0789,285.1385z M21.8811,150.8553c-4.3413-6.0624-8.1245-12.2988-11.1603-19.0765
		c-1.5422-3.3569-2.9757-6.7483-4.0187-10.1948c-0.9061-3.0357-1.5307-6.1391-1.5013-9.0532
		c0.1011,0.151,0.1984,0.3046,0.2995,0.4556c4.6843,6.564,10.2068,11.998,15.746,17.4397
		c5.5776,5.3866,11.3203,10.5647,17.141,15.6441l8.7964,7.5367l4.4411,3.7152l1.5525,1.2862l-0.0922,0.2662
		c-2.2666,6.8737-4.2146,13.7334-6.1036,20.6404c-1.1429-1.0482-2.2794-2.1168-3.3942-3.2238
		c-2.6275-2.6108-5.1834-5.3214-7.6727-8.0908C30.9425,162.6576,26.2122,156.8819,21.8811,150.8553z M53.7443,157.0099
		c0.0013-0.0026,0.0013-0.0038,0.0013-0.0038C53.7776,156.9203,53.7635,156.9587,53.7443,157.0099z M54.3062,159.5464l0.073,0.0614
		l0.0474,0.041C54.6607,159.8779,54.525,159.8139,54.3062,159.5464z M51.6338,182.5237c1.93-7.401,3.9522-14.8379,6.2521-22.0546
		l0.4428-1.3143l0.1101-0.3072l0.0883-0.2534c0.5363-1.9376-1.3758-3.3211-0.8153-2.7644l-0.0896-0.0755l-0.5823-0.4761
		l-2.2385-1.8186l-4.45-3.6474l-8.8092-7.3972c-5.8259-4.9809-11.5699-10.0566-17.1167-15.3076
		c-5.4842-5.2651-11.0208-10.6683-15.3416-16.6129c-1.0303-1.4679-2.0094-3.0587-2.4215-4.4242
		c-0.2342-0.6885-0.1369-1.1684-0.1331-1.0929c0.0346-0.0333-0.0704,0.0627,0.0794-0.0845l0.4671-0.3955
		c0.2918-0.2713,0.6822-0.5094,1.0175-0.7679c2.9104-1.9837,6.3839-3.5578,9.851-4.9861
		c7.0033-2.8181,14.3113-5.0795,21.6845-7.0299c14.7861-3.7472,29.9114-6.4975,45.0584-7.4548h0.0026l1.7624-0.2278l0.6668-1.4206
		c6.7845-14.4322,14.3151-28.5662,22.4921-42.2574c4.0597-6.8622,8.4163-13.5479,13.1018-19.934
		c2.3524-3.1816,4.7969-6.2902,7.4321-9.1518c1.3195-1.4244,2.6851-2.7976,4.1262-3.9917c1.4219-1.18,2.9821-2.2639,4.4104-2.7016
		c0.7116-0.2252,1.3067-0.2393,1.7342-0.0857c0.5209,0.2112,1.372,0.6949,2.0247,1.2068c1.3861,1.0661,2.6915,2.4111,3.8933,3.879
		c2.4074,2.9486,4.4884,6.2876,6.4402,9.6931c3.8549,6.8597,7.2504,14.0662,10.2951,21.4173
		c3.0473,7.3562,5.8707,14.82,8.607,22.3221c2.6327,7.5444,5.2435,15.0977,7.7021,22.747l0.709,2.2051l2.4253,0.3071l21.8547,2.7759
		c7.2324,0.9522,14.4367,1.9965,21.5693,3.2635c7.1224,1.2772,14.2076,2.749,20.9832,4.7826
		c3.3724,1.0226,6.6834,2.1961,9.6475,3.664c1.4795,0.7282,2.8413,1.5588,3.956,2.4367c1.0661,0.8536,1.7982,1.784,2.003,2.406
		c-0.0013,0.0115-0.0026,0.0486-0.0026,0.1075c-0.0026,0.1062-0.0154,0.2739-0.0832,0.5042
		c-0.1216,0.4889-0.3673,1.1237-0.6834,1.7725c-0.654,1.3182-1.5588,2.7093-2.5495,4.0672
		c-2.0068,2.7272-4.3592,5.3751-6.8139,7.9347c-4.9364,5.1204-10.3233,9.9376-15.8727,14.5435
		c-11.1398,9.1582-22.9823,17.6624-35.4608,24.6398l-2.5392,1.4193l0.5862,2.7989c3.3942,16.1996,7.1864,32.0498,10.2119,48.0804
		c1.5102,7.9948,2.895,16.0153,3.7513,23.9756c0.4095,3.9622,0.7103,7.9577,0.5567,11.6883
		c-0.0678,1.8314-0.3136,3.6909-0.7359,4.8517c-0.0461,0.1446-0.0998,0.2623-0.1485,0.3532
		c-0.2649,0.0346-0.6233,0.0742-0.8985,0.041c-0.4556-0.0077-0.9535-0.0806-1.4373-0.1305
		c-2.8617-0.2931-6.1279-1.2222-9.2418-2.3074c-3.6936-1.3003-7.3745-2.868-11.0131-4.5509
		c-7.2823-3.3812-14.4226-7.2321-21.4349-11.2954c-7.0098-4.0736-13.8992-8.3852-20.6158-12.9169
		c-6.6808-4.5407-13.3322-9.2823-19.2195-14.4629l-2.6775-2.3062l-0.0154,0.0141l-2.5456,2.2921
		c-5.5226,4.9745-11.5942,9.6765-17.6773,14.2697c-6.1075,4.5868-12.3288,9.052-18.6193,13.4122
		c-6.2943,4.3551-12.6616,8.6104-19.1159,12.6891c-6.4415,4.0249-13.0673,8.0524-19.7084,11.0574
		c-0.8447,0.3775-1.7969,0.7384-2.5827,0.9752c-0.6591,0.1971-1.2069,0.3123-1.4155,0.2355
		c-0.4454-0.0499-0.7538-0.1523-1.0917-0.3929c-0.3302-0.2649-0.6898-0.7039-1.0252-1.2657
		c-1.3246-2.461-1.7931-6.2518-1.9249-9.8416c-0.2304-7.3447,0.6271-14.9454,1.6996-22.4539
		C44.4296,212.3351,47.8237,197.3578,51.6338,182.5237z M211.3452,184.6789c-0.0038-0.0192-0.0077-0.0384-0.0128-0.0589
		c-0.3545-1.6125-0.709-3.2238-1.0636-4.835c-0.6079-2.7618-1.2018-5.5184-1.7995-8.27c-0.3558-1.642-0.7103-3.2827-1.0584-4.9208
		c-0.0038-0.0192-0.009-0.0384-0.0128-0.0576c1.4206-0.8229,2.8272-1.6637,4.2248-2.5173c1.2312-0.7512,2.4791-1.4833,3.6936-2.2575
		c2.6032-1.6625,5.168-3.3735,7.6983-5.1307c0.2995-0.2086,0.6092-0.4044,0.9087-0.6143
		c6.0499-4.2438,11.9026-8.7448,17.6133-13.4365c5.7248-4.7544,11.287-9.7187,16.528-15.1514
		c1.2133-1.267,2.4036-2.5647,3.5708-3.9008c0.2982-0.3417,0.5849-0.7052,0.8806-1.0545c0.4838-0.5708,0.9484-1.1774,1.4206-1.7687
		c-0.0051,0.0282-0.0103,0.0563-0.0154,0.0857c0.0064-0.0077,0.0128-0.0141,0.0179-0.0218
		c-0.0179,0.1024-0.0461,0.2048-0.0653,0.3072c-0.0333,0.1702-0.073,0.3404-0.1101,0.5106
		c-0.0858,0.4198-0.1613,0.8395-0.2701,1.2606c-1.0699,4.2694-2.9308,8.6232-5.145,12.7262
		c-6.0051,10.9486-12.947,21.1152-21.5655,29.7449c-4.116,4.1644-8.6288,7.9219-13.3783,11.4004
		c-0.695,0.5106-1.4104,0.9931-2.1156,1.4922c-1.5704,1.1019-3.151,2.1884-4.7687,3.2315
		c-1.0687,0.6898-2.1489,1.3591-3.2355,2.0234C212.634,183.8637,212.003,184.2898,211.3452,184.6789z"/>
	<path class="st1" d="M133.7593,14.257c-10.967,9.7354-30.8738,43.4373-32.3917,54.4781
		c-1.5166,11.0395,8.8988,10.0156,14.8783,4.5932c5.9795-5.4212,21.06-52.607,22.2297-57.1208
		C140.1022,9.9313,135.8672,12.386,133.7593,14.257z"/>
	<path class="st3" d="M133.7593,14.257c-10.967,9.7354-30.8738,43.4373-32.3917,54.4781
		c-1.5166,11.0395,8.8988,10.0156,14.8783,4.5932c5.9795-5.4212,21.06-52.607,22.2297-57.1208
		C140.1022,9.9313,135.8672,12.386,133.7593,14.257z"/>
	<path class="st1" d="M85.0725,102.2336c4.3873-3.2647,5.328-10.4674-3.1203-12.1785c-9.1215-1.8467-45.0712,4.812-59.8829,12.2297
		c-10.6816,5.3482-2.7133,6.1251,1.0533,5.9869C26.9263,108.1321,80.369,105.7351,85.0725,102.2336z"/>
	<path class="st3" d="M85.0725,102.2336c4.3873-3.2647,5.328-10.4674-3.1203-12.1785c-9.1215-1.8467-45.0712,4.812-59.8829,12.2297
		c-10.6816,5.3482-2.7133,6.1251,1.0533,5.9869C26.9263,108.1321,80.369,105.7351,85.0725,102.2336z"/>
	<path class="st1" d="M176.1173,160.1441c-1.5397,5.3866,23.5493,76.5455,34.2898,94.0978
		c0.4838,0.0499,0.9816,0.1229,1.4373,0.1305c0.2752,0.0333,0.6335-0.0064,0.8985-0.041c0.0486-0.0909,0.1024-0.2086,0.1485-0.3532
		c0.4223-1.1608,0.6681-3.0203,0.7359-4.8517c0.1536-3.7306-0.1472-7.7261-0.5567-11.6883
		c-0.8562-7.9603-2.241-15.9807-3.7513-23.9756c-3.0256-16.0306-6.8178-31.8808-10.2119-48.0804l-0.5862-2.7989l2.5392-1.4193
		c12.4785-6.9774,24.321-15.4816,35.4608-24.6398c5.5494-4.606,10.9363-9.4231,15.8727-14.5435
		c2.4548-2.5596,4.8071-5.2075,6.8139-7.9347c0.9906-1.3579,1.8955-2.749,2.5495-4.0672c0.3161-0.6488,0.5619-1.2836,0.6834-1.7725
		c0.0678-0.2304,0.0806-0.398,0.0832-0.5042C241.3666,115.8454,179.3873,151.97,176.1173,160.1441z"/>
	<path class="st4" d="M176.1173,160.1441c-1.5397,5.3866,23.5493,76.5455,34.2898,94.0978
		c0.4838,0.0499,0.9816,0.1229,1.4373,0.1305c0.2752,0.0333,0.6335-0.0064,0.8985-0.041c0.0486-0.0909,0.1024-0.2086,0.1485-0.3532
		c0.4223-1.1608,0.6681-3.0203,0.7359-4.8517c0.1536-3.7306-0.1472-7.7261-0.5567-11.6883
		c-0.8562-7.9603-2.241-15.9807-3.7513-23.9756c-3.0256-16.0306-6.8178-31.8808-10.2119-48.0804l-0.5862-2.7989l2.5392-1.4193
		c12.4785-6.9774,24.321-15.4816,35.4608-24.6398c5.5494-4.606,10.9363-9.4231,15.8727-14.5435
		c2.4548-2.5596,4.8071-5.2075,6.8139-7.9347c0.9906-1.3579,1.8955-2.749,2.5495-4.0672c0.3161-0.6488,0.5619-1.2836,0.6834-1.7725
		c0.0678-0.2304,0.0806-0.398,0.0832-0.5042C241.3666,115.8454,179.3873,151.97,176.1173,160.1441z"/>
	<path class="st2" d="M126.276,216.7773c-0.215,0.1792-0.4364,0.3391-0.6527,0.517c-2.1693,1.7853-4.3553,3.5194-6.5618,5.2011
		c-0.9445,0.7218-1.8967,1.4295-2.8464,2.1385c-0.91,0.6783-1.8212,1.354-2.735,2.0246c-1.0303,0.7576-2.0503,1.5319-3.0857,2.2831
		c-6.2917,4.533-12.6654,8.9201-19.1133,13.1998c-6.4479,4.2771-12.9649,8.4492-19.6022,12.4626
		c-6.6936,3.975-13.249,7.991-20.6798,11.2545c-0.9471,0.3993-1.9147,0.7807-2.9974,1.1147
		c-0.5452,0.1651-1.1109,0.3212-1.7867,0.4402c-0.3404,0.0576-0.7039,0.1088-1.1544,0.1216c-0.0128,0-0.0218-0.0026-0.0346-0.0013
		h-0.0013c-0.4249,0.0179-0.7474-0.0307-1.1263-0.0563c-1.18-0.1139-2.4125-0.5311-3.4748-1.1761
		c0.0525,0.9854,0.0742,1.9734,0.1472,2.9538c0.6962,8.3417,2.2513,16.7691,5.8758,23.8374
		c0.0768-0.032,0.1561-0.0602,0.2304-0.0947c0.8012-0.3417,1.6446-0.7563,2.4957-1.18c1.6996-0.8536,3.4146-1.8314,5.1143-2.8334
		c3.3993-2.0298,6.773-4.1977,10.1569-6.3516c6.7576-4.3423,13.3437-9.011,19.9759-13.5978
		c6.5874-4.6546,13.1722-9.3194,19.6112-14.1468c4.4052-3.2839,8.8066-6.6268,13.0161-10.0604
		c1.9428-1.5895,3.8575-3.1931,5.6928-4.8235c0.8677-0.7717,2.1028-1.8736,3.0268-2.6837l0.462-0.4108h0.0013l0.0653-20.1157
		C126.2888,216.7875,126.2824,216.7824,126.276,216.7773z"/>
	<path class="st5" d="M126.276,216.7773c-0.215,0.1792-0.4364,0.3391-0.6527,0.517c-2.1693,1.7853-4.3553,3.5194-6.5618,5.2011
		c-0.9445,0.7218-1.8967,1.4295-2.8464,2.1385c-0.91,0.6783-1.8212,1.354-2.735,2.0246c-1.0303,0.7576-2.0503,1.5319-3.0857,2.2831
		c-6.2917,4.533-12.6654,8.9201-19.1133,13.1998c-6.4479,4.2771-12.9649,8.4492-19.6022,12.4626
		c-6.6936,3.975-13.249,7.991-20.6798,11.2545c-0.9471,0.3993-1.9147,0.7807-2.9974,1.1147
		c-0.5452,0.1651-1.1109,0.3212-1.7867,0.4402c-0.3404,0.0576-0.7039,0.1088-1.1544,0.1216c-0.0128,0-0.0218-0.0026-0.0346-0.0013
		h-0.0013c-0.4249,0.0179-0.7474-0.0307-1.1263-0.0563c-1.18-0.1139-2.4125-0.5311-3.4748-1.1761
		c0.0525,0.9854,0.0742,1.9734,0.1472,2.9538c0.6962,8.3417,2.2513,16.7691,5.8758,23.8374
		c0.0768-0.032,0.1561-0.0602,0.2304-0.0947c0.8012-0.3417,1.6446-0.7563,2.4957-1.18c1.6996-0.8536,3.4146-1.8314,5.1143-2.8334
		c3.3993-2.0298,6.773-4.1977,10.1569-6.3516c6.7576-4.3423,13.3437-9.011,19.9759-13.5978
		c6.5874-4.6546,13.1722-9.3194,19.6112-14.1468c4.4052-3.2839,8.8066-6.6268,13.0161-10.0604
		c1.9428-1.5895,3.8575-3.1931,5.6928-4.8235c0.8677-0.7717,2.1028-1.8736,3.0268-2.6837l0.462-0.4108h0.0013l0.0653-20.1157
		C126.2888,216.7875,126.2824,216.7824,126.276,216.7773z"/>
	<path class="st0" d="M125.7666,237.3205c0.1587-0.1382,0.3276-0.2879,0.4633-0.4057v-0.0051h-0.0013L125.7666,237.3205z"/>
	<path class="st5" d="M125.7666,237.3205c0.1587-0.1382,0.3276-0.2879,0.4633-0.4057v-0.0051h-0.0013L125.7666,237.3205z"/>
	<path class="st0" d="M84.4198,269.0349c-6.6322,4.5868-13.2183,9.2554-19.9759,13.5978
		c-3.3839,2.1539-6.7576,4.3218-10.1569,6.3516c-1.6996,1.0021-3.4146,1.9798-5.1143,2.8334
		c-0.8511,0.4236-1.6945,0.8383-2.4957,1.18c-0.0742,0.0346-0.1536,0.0627-0.2304,0.0947c0.0026,0.0038,0.0038,0.0089,0.0064,0.0128
		c0.087-0.0358,0.1766-0.0691,0.2611-0.1075c0.8012-0.3417,1.6459-0.7563,2.4957-1.18c1.6996-0.8536,3.4146-1.8314,5.1143-2.8334
		c3.3993-2.0298,6.773-4.1977,10.1569-6.3516c6.7576-4.3423,13.3437-9.011,19.9759-13.5978
		c6.5861-4.6546,13.1722-9.3194,19.6099-14.1468c4.3963-3.2763,8.7836-6.6268,12.9802-10.0604
		c-4.2094,3.4337-8.6108,6.7765-13.0161,10.0604C97.592,259.7155,91.0072,264.3803,84.4198,269.0349z"/>
	<path class="st5" d="M84.4198,269.0349c-6.6322,4.5868-13.2183,9.2554-19.9759,13.5978
		c-3.3839,2.1539-6.7576,4.3218-10.1569,6.3516c-1.6996,1.0021-3.4146,1.9798-5.1143,2.8334
		c-0.8511,0.4236-1.6945,0.8383-2.4957,1.18c-0.0742,0.0346-0.1536,0.0627-0.2304,0.0947c0.0026,0.0038,0.0038,0.0089,0.0064,0.0128
		c0.087-0.0358,0.1766-0.0691,0.2611-0.1075c0.8012-0.3417,1.6459-0.7563,2.4957-1.18c1.6996-0.8536,3.4146-1.8314,5.1143-2.8334
		c3.3993-2.0298,6.773-4.1977,10.1569-6.3516c6.7576-4.3423,13.3437-9.011,19.9759-13.5978
		c6.5861-4.6546,13.1722-9.3194,19.6099-14.1468c4.3963-3.2763,8.7836-6.6268,12.9802-10.0604
		c-4.2094,3.4337-8.6108,6.7765-13.0161,10.0604C97.592,259.7155,91.0072,264.3803,84.4198,269.0349z"/>
	<path class="st2" d="M221.2896,178.2108c0.7065-0.4966,1.4206-0.9842,2.1156-1.4922c4.7508-3.4989,9.252-7.2922,13.377-11.4644
		c8.6185-8.6296,15.5591-18.7975,21.5629-29.7449c2.2154-4.103,4.0763-8.4568,5.1463-12.7275
		c0.1024-0.398,0.1881-0.7973,0.2726-1.1953c0.0346-0.1702,0.0781-0.3404,0.1101-0.5106c0.0179-0.096,0.0307-0.1894,0.0474-0.2854
		c-0.4595,0.5759-0.9369,1.1224-1.4053,1.6829c-0.2957,0.3494-0.5823,0.7128-0.8806,1.0545
		c-1.1672,1.3591-2.3511,2.6901-3.5708,3.9648c-5.2397,5.434-10.802,10.3983-16.528,15.1527
		c-5.7005,4.6828-11.566,9.1454-17.6133,13.3712c-0.2995,0.2099-0.6092,0.4057-0.9087,0.6143
		c-2.5341,1.752-5.0925,3.4721-7.6983,5.1307c-1.2146,0.7743-2.4624,1.5063-3.6936,2.2575
		c-1.4053,0.8562-2.7837,1.7482-4.212,2.5749c0.3481,1.6381,0.7026,3.2788,1.0584,4.9208c0.5951,2.7516,1.1941,5.5095,1.7995,8.27
		c0.3545,1.6113,0.709,3.2225,1.0636,4.835c0.6514-0.3852,1.308-0.7602,1.953-1.1544c1.0866-0.6629,2.1668-1.3361,3.2355-2.0234
		C218.136,180.398,219.7231,179.3166,221.2896,178.2108z"/>
	<path class="st5" d="M221.2896,178.2108c0.7065-0.4966,1.4206-0.9842,2.1156-1.4922c4.7508-3.4989,9.252-7.2922,13.377-11.4644
		c8.6185-8.6296,15.5591-18.7975,21.5629-29.7449c2.2154-4.103,4.0763-8.4568,5.1463-12.7275
		c0.1024-0.398,0.1881-0.7973,0.2726-1.1953c0.0346-0.1702,0.0781-0.3404,0.1101-0.5106c0.0179-0.096,0.0307-0.1894,0.0474-0.2854
		c-0.4595,0.5759-0.9369,1.1224-1.4053,1.6829c-0.2957,0.3494-0.5823,0.7128-0.8806,1.0545
		c-1.1672,1.3591-2.3511,2.6901-3.5708,3.9648c-5.2397,5.434-10.802,10.3983-16.528,15.1527
		c-5.7005,4.6828-11.566,9.1454-17.6133,13.3712c-0.2995,0.2099-0.6092,0.4057-0.9087,0.6143
		c-2.5341,1.752-5.0925,3.4721-7.6983,5.1307c-1.2146,0.7743-2.4624,1.5063-3.6936,2.2575
		c-1.4053,0.8562-2.7837,1.7482-4.212,2.5749c0.3481,1.6381,0.7026,3.2788,1.0584,4.9208c0.5951,2.7516,1.1941,5.5095,1.7995,8.27
		c0.3545,1.6113,0.709,3.2225,1.0636,4.835c0.6514-0.3852,1.308-0.7602,1.953-1.1544c1.0866-0.6629,2.1668-1.3361,3.2355-2.0234
		C218.136,180.398,219.7231,179.3166,221.2896,178.2108z"/>
	<path class="st0" d="M258.3451,135.5094c-6.0038,10.9473-12.9444,21.1152-21.5629,29.7449
		c-4.125,4.1721-8.6262,7.9654-13.377,11.4644c4.7495-3.4785,9.2623-7.2359,13.3783-11.4004
		c8.6185-8.6296,15.5604-18.7963,21.5655-29.7449c2.2141-4.103,4.075-8.4568,5.145-12.7262
		c0.1088-0.4211,0.1843-0.8408,0.2701-1.2606c-0.0845,0.398-0.1702,0.7973-0.2726,1.1953
		C262.4214,127.0525,260.5605,131.4064,258.3451,135.5094z"/>
	<path class="st5" d="M258.3451,135.5094c-6.0038,10.9473-12.9444,21.1152-21.5629,29.7449
		c-4.125,4.1721-8.6262,7.9654-13.377,11.4644c4.7495-3.4785,9.2623-7.2359,13.3783-11.4004
		c8.6185-8.6296,15.5604-18.7963,21.5655-29.7449c2.2141-4.103,4.075-8.4568,5.145-12.7262
		c0.1088-0.4211,0.1843-0.8408,0.2701-1.2606c-0.0845,0.398-0.1702,0.7973-0.2726,1.1953
		C262.4214,127.0525,260.5605,131.4064,258.3451,135.5094z"/>
	<path class="st0" d="M221.2896,178.2108c-1.5665,1.1057-3.1535,2.1872-4.7687,3.2315
		C218.1386,180.3993,219.7192,179.3127,221.2896,178.2108z"/>
	<path class="st5" d="M221.2896,178.2108c-1.5665,1.1057-3.1535,2.1872-4.7687,3.2315
		C218.1386,180.3993,219.7192,179.3127,221.2896,178.2108z"/>
	<path class="st0" d="M211.3452,184.6789c0.6579-0.3891,1.2888-0.8152,1.9403-1.2132c-0.6451,0.3942-1.3016,0.7691-1.953,1.1544
		C211.3375,184.6405,211.3413,184.6597,211.3452,184.6789z"/>
	<path class="st5" d="M211.3452,184.6789c0.6579-0.3891,1.2888-0.8152,1.9403-1.2132c-0.6451,0.3942-1.3016,0.7691-1.953,1.1544
		C211.3375,184.6405,211.3413,184.6597,211.3452,184.6789z"/>
	<path class="st0" d="M263.9394,120.7688c-0.0051,0.0077-0.0115,0.0141-0.0179,0.0218c-0.0167,0.096-0.0294,0.1894-0.0474,0.2854
		C263.8933,120.9735,263.9214,120.8712,263.9394,120.7688z"/>
	<path class="st5" d="M263.9394,120.7688c-0.0051,0.0077-0.0115,0.0141-0.0179,0.0218c-0.0167,0.096-0.0294,0.1894-0.0474,0.2854
		C263.8933,120.9735,263.9214,120.8712,263.9394,120.7688z"/>
	<path class="st4" d="M45.9398,261.1118c0.7858-0.2368,1.738-0.5977,2.5827-0.9752c6.6411-3.0049,13.2669-7.0324,19.7084-11.0574
		c6.4543-4.0787,12.8215-8.334,19.1159-12.6891c6.2905-4.3602,12.5118-8.8254,18.6193-13.4122
		c6.0831-4.5932,12.1547-9.2951,17.6773-14.2697l2.5456-2.2921c-0.2688-4.5548-1.1877-10.9281-4.1326-14.2197
		C116.3559,185.8282,59.1888,246.6501,45.9398,261.1118z"/>
</g>
</svg>
